# Blender v2.93.5 OBJ File: ''
# www.blender.org
mtllib washingmachine-redone.mtl
o Cube
v 0.270000 0.350000 -0.254398
v 0.270000 -0.350000 -0.254398
v 0.270000 0.350000 0.254398
v 0.270000 -0.350000 0.254398
v -0.270000 0.350000 -0.254398
v -0.270000 -0.350000 -0.254398
v -0.270000 0.350000 0.254398
v -0.270000 -0.350000 0.254398
v 0.001952 0.204826 0.198057
v 0.001952 0.204826 0.295602
v 0.045109 0.200324 0.198057
v 0.045109 0.200324 0.295602
v 0.086607 0.186989 0.198057
v 0.086607 0.186989 0.295602
v 0.124852 0.165334 0.198057
v 0.124852 0.165334 0.295602
v 0.158374 0.136191 0.198057
v 0.158374 0.136191 0.295602
v 0.185885 0.100681 0.198057
v 0.185885 0.100681 0.295602
v 0.206328 0.060167 0.198057
v 0.206328 0.060167 0.295602
v 0.218916 0.016208 0.198057
v 0.218916 0.016208 0.295602
v 0.223167 -0.029509 0.198057
v 0.223167 -0.029509 0.295602
v 0.218916 -0.075226 0.198057
v 0.218916 -0.075226 0.295602
v 0.206328 -0.119185 0.198057
v 0.206328 -0.119185 0.295602
v 0.185885 -0.159699 0.198057
v 0.185885 -0.159699 0.295602
v 0.158374 -0.195209 0.198057
v 0.158374 -0.195209 0.295602
v 0.124852 -0.224352 0.198057
v 0.124852 -0.224352 0.295602
v 0.086607 -0.246007 0.198057
v 0.086607 -0.246007 0.295602
v 0.045109 -0.259342 0.198057
v 0.045109 -0.259342 0.295602
v 0.001952 -0.263844 0.198057
v 0.001952 -0.263844 0.295602
v -0.041205 -0.259342 0.198057
v -0.041205 -0.259342 0.295602
v -0.082704 -0.246007 0.198057
v -0.082704 -0.246007 0.295602
v -0.120949 -0.224352 0.198057
v -0.120949 -0.224352 0.295602
v -0.154471 -0.195209 0.198057
v -0.154471 -0.195209 0.295602
v -0.181982 -0.159699 0.198057
v -0.181982 -0.159699 0.295602
v -0.202425 -0.119185 0.198057
v -0.202425 -0.119185 0.295602
v -0.215013 -0.075226 0.198057
v -0.215013 -0.075226 0.295602
v -0.219264 -0.029509 0.198057
v -0.219264 -0.029509 0.295602
v -0.215013 0.016208 0.198057
v -0.215013 0.016208 0.295602
v -0.202425 0.060167 0.198057
v -0.202425 0.060167 0.295602
v -0.181982 0.100681 0.198057
v -0.181982 0.100681 0.295602
v -0.154471 0.136191 0.198057
v -0.154471 0.136191 0.295602
v -0.120949 0.165334 0.198057
v -0.120949 0.165334 0.295602
v -0.082704 0.186989 0.198057
v -0.082704 0.186989 0.295602
v -0.041205 0.200324 0.198057
v -0.041205 0.200324 0.295602
v 0.005208 0.303114 0.275559
v 0.005208 0.304242 0.250161
v -0.000099 0.302607 0.275536
v -0.000099 0.303735 0.250138
v -0.005202 0.301105 0.275468
v -0.005202 0.302233 0.250070
v -0.009904 0.298666 0.275357
v -0.009904 0.299794 0.249959
v -0.014026 0.295384 0.275208
v -0.014026 0.296511 0.249810
v -0.017409 0.291384 0.275026
v -0.017409 0.292512 0.249628
v -0.019923 0.286821 0.274818
v -0.019923 0.287948 0.249420
v -0.021471 0.281869 0.274593
v -0.021471 0.282997 0.249195
v -0.021993 0.276720 0.274359
v -0.021993 0.277848 0.248961
v -0.021471 0.271571 0.274125
v -0.021471 0.272699 0.248727
v -0.019923 0.266620 0.273900
v -0.019923 0.267747 0.248501
v -0.017409 0.262056 0.273692
v -0.017409 0.263184 0.248294
v -0.014026 0.258057 0.273510
v -0.014026 0.259184 0.248112
v -0.009904 0.254774 0.273361
v -0.009904 0.255902 0.247963
v -0.005202 0.252335 0.273250
v -0.005202 0.253463 0.247852
v -0.000099 0.250833 0.273182
v -0.000099 0.251961 0.247784
v 0.005208 0.250326 0.273159
v 0.005208 0.251454 0.247760
v 0.010514 0.250833 0.273182
v 0.010514 0.251961 0.247784
v 0.015617 0.252335 0.273250
v 0.015617 0.253463 0.247852
v 0.020319 0.254774 0.273361
v 0.020319 0.255902 0.247963
v 0.024441 0.258057 0.273510
v 0.024441 0.259184 0.248112
v 0.027824 0.262056 0.273692
v 0.027824 0.263184 0.248294
v 0.030338 0.266620 0.273900
v 0.030338 0.267747 0.248501
v 0.031886 0.271571 0.274125
v 0.031886 0.272699 0.248727
v 0.032408 0.276720 0.274359
v 0.032408 0.277848 0.248961
v 0.031886 0.281869 0.274593
v 0.031886 0.282997 0.249195
v 0.030338 0.286821 0.274818
v 0.030338 0.287948 0.249420
v 0.027824 0.291384 0.275026
v 0.027824 0.292512 0.249628
v 0.024441 0.295384 0.275208
v 0.024441 0.296511 0.249810
v 0.020319 0.298666 0.275357
v 0.020319 0.299794 0.249959
v 0.015617 0.301105 0.275468
v 0.015617 0.302233 0.250070
v 0.010514 0.302607 0.275536
v 0.010514 0.303735 0.250138
vt 0.342032 0.324710
vt 0.342032 0.008661
vt 0.658036 0.008661
vt 0.658036 0.324710
vt 0.991339 0.658082
vt 0.675358 0.658082
vt 0.675358 0.342032
vt 0.991339 0.342032
vt 0.324710 0.342032
vt 0.324710 0.658082
vt 0.008661 0.658082
vt 0.008661 0.342032
vt 0.658036 0.342032
vt 0.658036 0.658082
vt 0.342032 0.658082
vt 0.342032 0.342032
vt 0.324710 0.008661
vt 0.324710 0.324710
vt 0.008661 0.324710
vt 0.008661 0.008661
vt 0.991339 0.324710
vt 0.675358 0.324710
vt 0.675358 0.008661
vt 0.991339 0.008661
vt 0.605141 0.783056
vt 0.544558 0.783056
vt 0.544524 0.757797
vt 0.605107 0.757797
vt 0.544422 0.733509
vt 0.605005 0.733509
vt 0.544256 0.711125
vt 0.604839 0.711125
vt 0.544033 0.691505
vt 0.604616 0.691505
vt 0.543761 0.675404
vt 0.604344 0.675404
vt 0.683055 0.792965
vt 0.622463 0.792965
vt 0.622463 0.774673
vt 0.683055 0.774673
vt 0.622463 0.754825
vt 0.683055 0.754825
vt 0.622463 0.734184
vt 0.683055 0.734184
vt 0.622463 0.713543
vt 0.683055 0.713543
vt 0.622463 0.693695
vt 0.683055 0.693695
vt 0.622463 0.675404
vt 0.683055 0.675404
vt 0.526439 0.890708
vt 0.465856 0.890708
vt 0.465584 0.874606
vt 0.526167 0.874606
vt 0.465361 0.854987
vt 0.525944 0.854987
vt 0.465195 0.832603
vt 0.525778 0.832603
vt 0.465093 0.808315
vt 0.525676 0.808315
vt 0.465059 0.783056
vt 0.525641 0.783056
vt 0.465093 0.757797
vt 0.525676 0.757797
vt 0.465195 0.733509
vt 0.525778 0.733509
vt 0.465361 0.711125
vt 0.525944 0.711125
vt 0.465584 0.691505
vt 0.526167 0.691505
vt 0.465856 0.675404
vt 0.526439 0.675404
vt 0.700377 0.675404
vt 0.760968 0.675404
vt 0.760968 0.693695
vt 0.700377 0.693695
vt 0.760968 0.713543
vt 0.700377 0.713543
vt 0.760968 0.734184
vt 0.700377 0.734184
vt 0.760968 0.754825
vt 0.700377 0.754825
vt 0.760968 0.774673
vt 0.700377 0.774673
vt 0.760968 0.792965
vt 0.700377 0.792965
vt 0.604344 0.890708
vt 0.543761 0.890708
vt 0.544033 0.874606
vt 0.604616 0.874606
vt 0.544256 0.854987
vt 0.604839 0.854987
vt 0.544422 0.832603
vt 0.605005 0.832603
vt 0.447737 0.787603
vt 0.447737 0.812943
vt 0.443685 0.837958
vt 0.435737 0.861685
vt 0.424198 0.883212
vt 0.409511 0.901714
vt 0.392242 0.916478
vt 0.373053 0.926937
vt 0.352683 0.932689
vt 0.331913 0.933514
vt 0.311543 0.929379
vt 0.292354 0.920443
vt 0.275085 0.907050
vt 0.260399 0.889715
vt 0.248860 0.869103
vt 0.240912 0.846007
vt 0.236860 0.821315
vt 0.236860 0.795974
vt 0.240912 0.770960
vt 0.248860 0.747233
vt 0.260399 0.725705
vt 0.275085 0.707204
vt 0.292354 0.692440
vt 0.311543 0.681981
vt 0.331913 0.676228
vt 0.352683 0.675404
vt 0.373053 0.679539
vt 0.392242 0.688474
vt 0.409511 0.701867
vt 0.424198 0.719202
vt 0.435737 0.739814
vt 0.443685 0.762910
vt 0.544524 0.808315
vt 0.605107 0.808315
vt 0.219538 0.812943
vt 0.215486 0.837957
vt 0.207538 0.861684
vt 0.195999 0.883212
vt 0.181313 0.901714
vt 0.164043 0.916478
vt 0.144855 0.926937
vt 0.124484 0.932689
vt 0.103715 0.933514
vt 0.083344 0.929379
vt 0.064156 0.920443
vt 0.046886 0.907050
vt 0.032200 0.889715
vt 0.020661 0.869103
vt 0.012713 0.846007
vt 0.008661 0.821315
vt 0.008661 0.795974
vt 0.012713 0.770960
vt 0.020661 0.747233
vt 0.032200 0.725705
vt 0.046886 0.707204
vt 0.064156 0.692440
vt 0.083344 0.681981
vt 0.103715 0.676228
vt 0.124484 0.675404
vt 0.144855 0.679539
vt 0.164043 0.688474
vt 0.181313 0.701867
vt 0.195999 0.719202
vt 0.207538 0.739814
vt 0.215486 0.762910
vt 0.219538 0.787603
vt 0.794314 0.786791
vt 0.778531 0.786791
vt 0.778521 0.783686
vt 0.794304 0.783686
vt 0.778490 0.780699
vt 0.794273 0.780699
vt 0.778440 0.777947
vt 0.794223 0.777947
vt 0.778372 0.775534
vt 0.794155 0.775534
vt 0.778290 0.773554
vt 0.794073 0.773554
vt 0.666307 0.810287
vt 0.666307 0.826071
vt 0.664244 0.826134
vt 0.664244 0.810349
vt 0.662005 0.826202
vt 0.662005 0.810417
vt 0.659677 0.826272
vt 0.659677 0.810487
vt 0.657348 0.826342
vt 0.657348 0.810558
vt 0.655109 0.826410
vt 0.655109 0.810625
vt 0.653046 0.826472
vt 0.653046 0.810688
vt 0.811636 0.773554
vt 0.827419 0.773554
vt 0.827501 0.775534
vt 0.811719 0.775534
vt 0.827569 0.777947
vt 0.811786 0.777947
vt 0.827619 0.780699
vt 0.811836 0.780699
vt 0.827650 0.783686
vt 0.811867 0.783686
vt 0.827661 0.786791
vt 0.811878 0.786791
vt 0.827650 0.789897
vt 0.811867 0.789897
vt 0.827619 0.792884
vt 0.811836 0.792884
vt 0.827569 0.795636
vt 0.811786 0.795636
vt 0.827501 0.798049
vt 0.811719 0.798049
vt 0.827419 0.800028
vt 0.811636 0.800028
vt 0.622463 0.826071
vt 0.622463 0.810287
vt 0.624527 0.810349
vt 0.624527 0.826134
vt 0.626765 0.810417
vt 0.626765 0.826202
vt 0.629094 0.810487
vt 0.629094 0.826272
vt 0.631422 0.810558
vt 0.631422 0.826342
vt 0.633661 0.810625
vt 0.633661 0.826410
vt 0.635724 0.810688
vt 0.635724 0.826472
vt 0.794073 0.800028
vt 0.778290 0.800028
vt 0.778372 0.798049
vt 0.794155 0.798049
vt 0.778440 0.795636
vt 0.794223 0.795636
vt 0.778490 0.792884
vt 0.794273 0.792884
vt 0.778290 0.742592
vt 0.778290 0.739478
vt 0.778747 0.736397
vt 0.779644 0.733469
vt 0.780946 0.730805
vt 0.782603 0.728508
vt 0.784552 0.726667
vt 0.786717 0.725352
vt 0.789016 0.724613
vt 0.791359 0.724479
vt 0.793658 0.724955
vt 0.795823 0.726024
vt 0.797772 0.727643
vt 0.799429 0.729750
vt 0.800731 0.732265
vt 0.801628 0.735091
vt 0.802085 0.738120
vt 0.802085 0.741234
vt 0.801628 0.744314
vt 0.800731 0.747243
vt 0.799429 0.749907
vt 0.797772 0.752203
vt 0.795823 0.754045
vt 0.793658 0.755360
vt 0.791359 0.756099
vt 0.789016 0.756233
vt 0.786717 0.755756
vt 0.784552 0.754688
vt 0.782603 0.753069
vt 0.780946 0.750962
vt 0.779644 0.748446
vt 0.778747 0.745620
vt 0.778521 0.789897
vt 0.794304 0.789897
vt 0.802085 0.692159
vt 0.801628 0.695239
vt 0.800731 0.698168
vt 0.799429 0.700831
vt 0.797772 0.703128
vt 0.795823 0.704969
vt 0.793658 0.706285
vt 0.791359 0.707024
vt 0.789016 0.707157
vt 0.786717 0.706681
vt 0.784552 0.705613
vt 0.782603 0.703994
vt 0.780946 0.701886
vt 0.779644 0.699371
vt 0.778747 0.696545
vt 0.778290 0.693517
vt 0.778290 0.690402
vt 0.778747 0.687322
vt 0.779644 0.684393
vt 0.780946 0.681730
vt 0.782603 0.679433
vt 0.784552 0.677592
vt 0.786717 0.676276
vt 0.789016 0.675537
vt 0.791359 0.675404
vt 0.793658 0.675880
vt 0.795823 0.676948
vt 0.797772 0.678567
vt 0.799429 0.680675
vt 0.800731 0.683190
vt 0.801628 0.686016
vt 0.802085 0.689044
vn 0.0000 1.0000 0.0000
vn 0.0000 0.0000 1.0000
vn -1.0000 0.0000 0.0000
vn 0.0000 -1.0000 0.0000
vn 1.0000 0.0000 0.0000
vn 0.0000 0.0000 -1.0000
vn 0.1038 0.9946 0.0000
vn 0.3059 0.9521 0.0000
vn 0.4927 0.8702 0.0000
vn 0.6561 0.7547 0.0000
vn 0.7905 0.6124 0.0000
vn 0.8928 0.4505 0.0000
vn 0.9614 0.2753 0.0000
vn 0.9957 0.0926 0.0000
vn 0.9957 -0.0926 -0.0000
vn 0.9614 -0.2753 0.0000
vn 0.8928 -0.4505 0.0000
vn 0.7905 -0.6124 0.0000
vn 0.6561 -0.7547 0.0000
vn 0.4927 -0.8702 0.0000
vn 0.3059 -0.9521 0.0000
vn 0.1038 -0.9946 0.0000
vn -0.1038 -0.9946 0.0000
vn -0.3059 -0.9521 0.0000
vn -0.4927 -0.8702 0.0000
vn -0.6561 -0.7547 0.0000
vn -0.7905 -0.6124 0.0000
vn -0.8928 -0.4505 0.0000
vn -0.9614 -0.2753 0.0000
vn -0.9957 -0.0926 -0.0000
vn -0.9957 0.0926 0.0000
vn -0.9614 0.2753 0.0000
vn -0.8928 0.4505 0.0000
vn -0.7905 0.6124 0.0000
vn -0.6561 0.7547 0.0000
vn -0.4927 0.8702 0.0000
vn -0.3059 0.9521 0.0000
vn -0.1038 0.9946 0.0000
vn -0.0952 0.9945 0.0442
vn -0.2826 0.9583 0.0425
vn -0.4608 0.8866 0.0394
vn -0.6233 0.7812 0.0347
vn -0.7639 0.6447 0.0286
vn -0.8761 0.4816 0.0214
vn -0.9545 0.2978 0.0132
vn -0.9949 0.1008 0.0045
vn -0.9949 -0.1008 -0.0045
vn -0.9545 -0.2978 -0.0132
vn -0.8761 -0.4816 -0.0214
vn -0.7639 -0.6447 -0.0286
vn -0.6233 -0.7812 -0.0347
vn -0.4608 -0.8866 -0.0394
vn -0.2826 -0.9583 -0.0425
vn -0.0952 -0.9945 -0.0442
vn 0.0952 -0.9945 -0.0442
vn 0.2826 -0.9583 -0.0425
vn 0.4608 -0.8866 -0.0394
vn 0.6233 -0.7812 -0.0347
vn 0.7639 -0.6447 -0.0286
vn 0.8761 -0.4816 -0.0214
vn 0.9545 -0.2978 -0.0132
vn 0.9949 -0.1008 -0.0045
vn 0.9949 0.1008 0.0045
vn 0.9545 0.2978 0.0132
vn 0.8761 0.4816 0.0214
vn 0.7639 0.6447 0.0286
vn 0.6233 0.7812 0.0347
vn 0.4608 0.8866 0.0394
vn 0.0000 0.0454 -0.9990
vn 0.2826 0.9583 0.0425
vn 0.0952 0.9945 0.0442
vn -0.0000 -0.0454 0.9990
usemtl Material
s off
f 1/1/1 5/2/1 7/3/1 3/4/1
f 4/5/2 3/6/2 7/7/2 8/8/2
f 8/9/3 7/10/3 5/11/3 6/12/3
f 6/13/4 2/14/4 4/15/4 8/16/4
f 2/17/5 1/18/5 3/19/5 4/20/5
f 6/21/6 5/22/6 1/23/6 2/24/6
f 9/25/7 10/26/7 12/27/7 11/28/7
f 11/28/8 12/27/8 14/29/8 13/30/8
f 13/30/9 14/29/9 16/31/9 15/32/9
f 15/32/10 16/31/10 18/33/10 17/34/10
f 17/34/11 18/33/11 20/35/11 19/36/11
f 19/37/12 20/38/12 22/39/12 21/40/12
f 21/40/13 22/39/13 24/41/13 23/42/13
f 23/42/14 24/41/14 26/43/14 25/44/14
f 25/44/15 26/43/15 28/45/15 27/46/15
f 27/46/16 28/45/16 30/47/16 29/48/16
f 29/48/17 30/47/17 32/49/17 31/50/17
f 31/51/18 32/52/18 34/53/18 33/54/18
f 33/54/19 34/53/19 36/55/19 35/56/19
f 35/56/20 36/55/20 38/57/20 37/58/20
f 37/58/21 38/57/21 40/59/21 39/60/21
f 39/60/22 40/59/22 42/61/22 41/62/22
f 41/62/23 42/61/23 44/63/23 43/64/23
f 43/64/24 44/63/24 46/65/24 45/66/24
f 45/66/25 46/65/25 48/67/25 47/68/25
f 47/68/26 48/67/26 50/69/26 49/70/26
f 49/70/27 50/69/27 52/71/27 51/72/27
f 51/73/28 52/74/28 54/75/28 53/76/28
f 53/76/29 54/75/29 56/77/29 55/78/29
f 55/78/30 56/77/30 58/79/30 57/80/30
f 57/80/31 58/79/31 60/81/31 59/82/31
f 59/82/32 60/81/32 62/83/32 61/84/32
f 61/84/33 62/83/33 64/85/33 63/86/33
f 63/87/34 64/88/34 66/89/34 65/90/34
f 65/90/35 66/89/35 68/91/35 67/92/35
f 67/92/36 68/91/36 70/93/36 69/94/36
f 12/95/2 10/96/2 72/97/2 70/98/2 68/99/2 66/100/2 64/101/2 62/102/2 60/103/2 58/104/2 56/105/2 54/106/2 52/107/2 50/108/2 48/109/2 46/110/2 44/111/2 42/112/2 40/113/2 38/114/2 36/115/2 34/116/2 32/117/2 30/118/2 28/119/2 26/120/2 24/121/2 22/122/2 20/123/2 18/124/2 16/125/2 14/126/2
f 69/94/37 70/93/37 72/127/37 71/128/37
f 71/128/38 72/127/38 10/26/38 9/25/38
f 9/129/6 11/130/6 13/131/6 15/132/6 17/133/6 19/134/6 21/135/6 23/136/6 25/137/6 27/138/6 29/139/6 31/140/6 33/141/6 35/142/6 37/143/6 39/144/6 41/145/6 43/146/6 45/147/6 47/148/6 49/149/6 51/150/6 53/151/6 55/152/6 57/153/6 59/154/6 61/155/6 63/156/6 65/157/6 67/158/6 69/159/6 71/160/6
f 73/161/39 74/162/39 76/163/39 75/164/39
f 75/164/40 76/163/40 78/165/40 77/166/40
f 77/166/41 78/165/41 80/167/41 79/168/41
f 79/168/42 80/167/42 82/169/42 81/170/42
f 81/170/43 82/169/43 84/171/43 83/172/43
f 83/173/44 84/174/44 86/175/44 85/176/44
f 85/176/45 86/175/45 88/177/45 87/178/45
f 87/178/46 88/177/46 90/179/46 89/180/46
f 89/180/47 90/179/47 92/181/47 91/182/47
f 91/182/48 92/181/48 94/183/48 93/184/48
f 93/184/49 94/183/49 96/185/49 95/186/49
f 95/187/50 96/188/50 98/189/50 97/190/50
f 97/190/51 98/189/51 100/191/51 99/192/51
f 99/192/52 100/191/52 102/193/52 101/194/52
f 101/194/53 102/193/53 104/195/53 103/196/53
f 103/196/54 104/195/54 106/197/54 105/198/54
f 105/198/55 106/197/55 108/199/55 107/200/55
f 107/200/56 108/199/56 110/201/56 109/202/56
f 109/202/57 110/201/57 112/203/57 111/204/57
f 111/204/58 112/203/58 114/205/58 113/206/58
f 113/206/59 114/205/59 116/207/59 115/208/59
f 115/209/60 116/210/60 118/211/60 117/212/60
f 117/212/61 118/211/61 120/213/61 119/214/61
f 119/214/62 120/213/62 122/215/62 121/216/62
f 121/216/63 122/215/63 124/217/63 123/218/63
f 123/218/64 124/217/64 126/219/64 125/220/64
f 125/220/65 126/219/65 128/221/65 127/222/65
f 127/223/66 128/224/66 130/225/66 129/226/66
f 129/226/67 130/225/67 132/227/67 131/228/67
f 131/228/68 132/227/68 134/229/68 133/230/68
f 76/231/69 74/232/69 136/233/69 134/234/69 132/235/69 130/236/69 128/237/69 126/238/69 124/239/69 122/240/69 120/241/69 118/242/69 116/243/69 114/244/69 112/245/69 110/246/69 108/247/69 106/248/69 104/249/69 102/250/69 100/251/69 98/252/69 96/253/69 94/254/69 92/255/69 90/256/69 88/257/69 86/258/69 84/259/69 82/260/69 80/261/69 78/262/69
f 133/230/70 134/229/70 136/263/70 135/264/70
f 135/264/71 136/263/71 74/162/71 73/161/71
f 73/265/72 75/266/72 77/267/72 79/268/72 81/269/72 83/270/72 85/271/72 87/272/72 89/273/72 91/274/72 93/275/72 95/276/72 97/277/72 99/278/72 101/279/72 103/280/72 105/281/72 107/282/72 109/283/72 111/284/72 113/285/72 115/286/72 117/287/72 119/288/72 121/289/72 123/290/72 125/291/72 127/292/72 129/293/72 131/294/72 133/295/72 135/296/72
