# Blender v2.93.5 OBJ File: 'kulkasyay.blend'
# www.blender.org
mtllib kulkaskecil.mtl
o Cube
v 0.263467 1.330490 -2.015647
v 0.263467 1.330490 -1.815351
v 0.263467 0.460422 -2.015647
v 0.263467 0.460422 -1.815351
v -0.192533 1.330490 -2.015647
v -0.192533 1.330490 -1.815351
v -0.192533 0.460422 -2.015647
v -0.192533 0.460422 -1.815351
v 0.256274 1.329287 -1.811809
v 0.256274 1.329287 -1.735902
v 0.256274 0.860073 -1.811809
v 0.256274 0.860073 -1.735902
v 0.018008 1.329287 -1.811809
v 0.018008 1.329287 -1.735902
v 0.018008 0.860073 -1.811809
v 0.018008 0.860073 -1.735902
v 0.257551 1.329595 -1.745323
v 0.257551 1.329595 -1.715647
v 0.257551 0.860381 -1.745323
v 0.257551 0.860381 -1.715647
v 0.027990 1.329595 -1.745323
v 0.027990 1.329595 -1.715647
v 0.027990 0.860381 -1.745323
v 0.027990 0.860381 -1.715647
v 0.256631 0.853652 -1.857658
v 0.256631 0.853652 -1.742031
v 0.256631 0.467852 -1.857658
v 0.256631 0.467852 -1.742031
v 0.016493 0.853652 -1.857658
v 0.016493 0.853652 -1.742031
v 0.016493 0.467852 -1.857658
v 0.016493 0.467852 -1.742031
v 0.255749 0.853652 -1.741145
v 0.255749 0.853652 -1.715938
v 0.255749 0.467852 -1.741145
v 0.255749 0.467852 -1.715938
v 0.029925 0.853652 -1.741145
v 0.029925 0.853652 -1.715938
v 0.029925 0.467852 -1.741145
v 0.029925 0.467852 -1.715938
v 0.013002 1.323992 -1.836709
v 0.013002 1.323992 -1.719723
v 0.013002 0.468618 -1.836709
v 0.013002 0.468618 -1.719723
v -0.192444 1.323992 -1.836709
v -0.192444 1.323992 -1.719723
v -0.192444 0.468618 -1.836709
v -0.192444 0.468618 -1.719723
v -0.161540 0.467610 -1.875286
v -0.161540 0.467610 -1.831693
v -0.161540 0.444589 -1.875286
v -0.161540 0.444589 -1.831693
v -0.178490 0.467610 -1.875286
v -0.178490 0.467610 -1.831693
v -0.178490 0.444589 -1.875286
v -0.178490 0.444589 -1.831693
v 0.249448 0.465325 -1.872682
v 0.249448 0.465325 -1.829089
v 0.249448 0.442304 -1.872682
v 0.249448 0.442304 -1.829089
v 0.232498 0.465325 -1.872682
v 0.232498 0.465325 -1.829089
v 0.232498 0.442304 -1.872682
v 0.232498 0.442304 -1.829089
v 0.249448 0.463510 -1.995587
v 0.249448 0.463510 -1.951994
v 0.249448 0.440490 -1.995587
v 0.249448 0.440490 -1.951994
v 0.232498 0.463510 -1.995587
v 0.232498 0.463510 -1.951994
v 0.232498 0.440490 -1.995587
v 0.232498 0.440490 -1.951994
v -0.159637 0.463510 -1.996371
v -0.159637 0.463510 -1.952778
v -0.159637 0.440490 -1.996371
v -0.159637 0.440490 -1.952778
v -0.176587 0.463510 -1.996371
v -0.176587 0.463510 -1.952778
v -0.176587 0.440490 -1.996371
v -0.176587 0.440490 -1.952778
vt 0.222924 0.014066
vt 0.014066 0.014066
vt 0.014066 0.222924
vt 0.222924 0.222924
vt 0.014066 0.251056
vt 0.014066 0.459914
vt 0.222924 0.459914
vt 0.222924 0.251056
vt 0.251056 0.014066
vt 0.251056 0.222924
vt 0.459914 0.222924
vt 0.459914 0.014066
vt 0.459914 0.251056
vt 0.251056 0.251056
vt 0.251056 0.459914
vt 0.459914 0.459914
vt 0.014066 0.488046
vt 0.014066 0.696904
vt 0.222924 0.696904
vt 0.222924 0.488046
vt 0.488046 0.014066
vt 0.488046 0.222924
vt 0.696904 0.222924
vt 0.696904 0.014066
vt 0.497450 0.721509
vt 0.388320 0.721509
vt 0.388319 0.834142
vt 0.497450 0.834142
vt 0.215448 0.865802
vt 0.136297 0.865802
vt 0.136297 0.974933
vt 0.215448 0.974933
vt 0.215448 0.725036
vt 0.136297 0.725036
vt 0.136297 0.837670
vt 0.215448 0.837670
vt 0.360187 0.721509
vt 0.251056 0.721509
vt 0.251056 0.834142
vt 0.360187 0.834142
vt 0.450950 0.862275
vt 0.371799 0.862275
vt 0.371799 0.974908
vt 0.450950 0.974908
vt 0.558233 0.862275
vt 0.479082 0.862275
vt 0.479082 0.971406
vt 0.558233 0.971406
vt 0.830179 0.311470
vt 0.725036 0.311470
vt 0.725036 0.424103
vt 0.830179 0.424103
vt 0.932776 0.862275
vt 0.901832 0.862275
vt 0.901832 0.967418
vt 0.932776 0.967418
vt 0.947441 0.488046
vt 0.916497 0.488046
vt 0.916497 0.600680
vt 0.947441 0.600680
vt 0.630726 0.721509
vt 0.525583 0.721509
vt 0.525583 0.834143
vt 0.630726 0.834143
vt 0.932776 0.721509
vt 0.901832 0.721509
vt 0.901832 0.834143
vt 0.932776 0.834143
vt 0.617310 0.862275
vt 0.586366 0.862275
vt 0.586366 0.967418
vt 0.617310 0.967418
vt 0.955767 0.124054
vt 0.955767 0.014066
vt 0.863157 0.014066
vt 0.863157 0.124054
vt 0.725036 0.014066
vt 0.725036 0.134636
vt 0.835024 0.134636
vt 0.835024 0.014066
vt 0.781090 0.721509
vt 0.781090 0.842078
vt 0.873700 0.842078
vt 0.873700 0.721509
vt 0.950922 0.421458
vt 0.950922 0.311470
vt 0.858312 0.311470
vt 0.858312 0.421458
vt 0.795755 0.488046
vt 0.795755 0.608615
vt 0.888365 0.608615
vt 0.888365 0.488046
vt 0.725036 0.162768
vt 0.725036 0.283337
vt 0.835024 0.283337
vt 0.835024 0.162768
vt 0.343666 0.965707
vt 0.343666 0.862275
vt 0.251056 0.862275
vt 0.251056 0.965707
vt 0.807374 0.870211
vt 0.781090 0.870211
vt 0.781090 0.973643
vt 0.807374 0.973643
vt 0.739560 0.871627
vt 0.713276 0.871627
vt 0.713276 0.964237
vt 0.739560 0.964237
vt 0.955767 0.255619
vt 0.955767 0.152187
vt 0.863157 0.152187
vt 0.863157 0.255619
vt 0.685143 0.871627
vt 0.658859 0.871627
vt 0.658859 0.964237
vt 0.685143 0.964237
vt 0.861791 0.870211
vt 0.835507 0.870211
vt 0.835507 0.973643
vt 0.861791 0.973643
vt 0.767622 0.488046
vt 0.673524 0.488046
vt 0.673524 0.693376
vt 0.767622 0.693376
vt 0.658859 0.721509
vt 0.658859 0.843495
vt 0.752957 0.843495
vt 0.752957 0.721509
vt 0.373042 0.488046
vt 0.251056 0.488046
vt 0.251056 0.693376
vt 0.373042 0.693376
vt 0.645391 0.488046
vt 0.551292 0.488046
vt 0.551292 0.693376
vt 0.645391 0.693376
vt 0.523160 0.488046
vt 0.401174 0.488046
vt 0.401174 0.693376
vt 0.523160 0.693376
vt 0.014066 0.725036
vt 0.014066 0.847022
vt 0.108165 0.847022
vt 0.108165 0.725036
vt 0.091384 0.956506
vt 0.091384 0.948743
vt 0.085858 0.948743
vt 0.085858 0.956506
vt 0.049962 0.875154
vt 0.049962 0.920610
vt 0.057726 0.920610
vt 0.057726 0.875154
vt 0.979055 0.385058
vt 0.979055 0.430514
vt 0.984581 0.430514
vt 0.984581 0.385058
vt 0.863838 0.457354
vt 0.863838 0.449590
vt 0.858312 0.449590
vt 0.858312 0.457354
vt 0.979055 0.311470
vt 0.979055 0.356926
vt 0.984581 0.356926
vt 0.984581 0.311470
vt 0.939339 0.636748
vt 0.939339 0.682204
vt 0.947102 0.682204
vt 0.947102 0.636748
vt 0.897497 0.457354
vt 0.897497 0.449590
vt 0.891971 0.449590
vt 0.891971 0.457354
vt 0.085858 0.875154
vt 0.085858 0.920610
vt 0.093622 0.920610
vt 0.093622 0.875154
vt 0.960909 0.868686
vt 0.960909 0.914142
vt 0.966435 0.914142
vt 0.966435 0.868686
vt 0.931155 0.457354
vt 0.931155 0.449590
vt 0.925629 0.449590
vt 0.925629 0.457354
vt 0.975574 0.488046
vt 0.975574 0.533502
vt 0.981100 0.533502
vt 0.981100 0.488046
vt 0.903443 0.636748
vt 0.903443 0.682204
vt 0.911206 0.682204
vt 0.911206 0.636748
vt 0.055488 0.956506
vt 0.055488 0.948743
vt 0.049962 0.948743
vt 0.049962 0.956506
vt 0.867547 0.636748
vt 0.867547 0.682204
vt 0.875310 0.682204
vt 0.875310 0.636748
vt 0.975574 0.561635
vt 0.975574 0.607091
vt 0.981100 0.607091
vt 0.981100 0.561635
vt 0.019592 0.956506
vt 0.019592 0.948743
vt 0.014066 0.948743
vt 0.014066 0.956506
vt 0.975235 0.636748
vt 0.975235 0.682204
vt 0.980761 0.682204
vt 0.980761 0.636748
vt 0.014066 0.875154
vt 0.014066 0.920610
vt 0.021830 0.920610
vt 0.021830 0.875154
vt 0.966435 0.942274
vt 0.960909 0.942274
vt 0.960909 0.950038
vt 0.966435 0.950038
vt 0.803518 0.636748
vt 0.795755 0.636748
vt 0.795755 0.682204
vt 0.803518 0.682204
vt 0.966435 0.721509
vt 0.960909 0.721509
vt 0.960909 0.766965
vt 0.966435 0.766965
vt 0.966435 0.978170
vt 0.960909 0.978170
vt 0.960909 0.985934
vt 0.966435 0.985934
vt 0.966435 0.795097
vt 0.960909 0.795097
vt 0.960909 0.840553
vt 0.966435 0.840553
vt 0.839414 0.636748
vt 0.831651 0.636748
vt 0.831651 0.682204
vt 0.839414 0.682204
vn 0.0000 0.0000 1.0000
vn 0.0000 1.0000 0.0000
vn 1.0000 0.0000 0.0000
vn 0.0000 0.0000 -1.0000
vn -1.0000 0.0000 0.0000
vn 0.0000 -1.0000 0.0000
usemtl Material
s off
f 1/1/1 5/2/1 7/3/1 3/4/1
f 4/5/2 3/6/2 7/7/2 8/8/2
f 8/9/3 7/10/3 5/11/3 6/12/3
f 6/13/4 2/14/4 4/15/4 8/16/4
f 2/17/5 1/18/5 3/19/5 4/20/5
f 6/21/6 5/22/6 1/23/6 2/24/6
f 9/25/1 13/26/1 15/27/1 11/28/1
f 12/29/2 11/30/2 15/31/2 16/32/2
f 16/33/3 15/34/3 13/35/3 14/36/3
f 14/37/4 10/38/4 12/39/4 16/40/4
f 10/41/5 9/42/5 11/43/5 12/44/5
f 14/45/6 13/46/6 9/47/6 10/48/6
f 17/49/1 21/50/1 23/51/1 19/52/1
f 20/53/2 19/54/2 23/55/2 24/56/2
f 24/57/3 23/58/3 21/59/3 22/60/3
f 22/61/4 18/62/4 20/63/4 24/64/4
f 18/65/5 17/66/5 19/67/5 20/68/5
f 22/69/6 21/70/6 17/71/6 18/72/6
f 25/73/1 29/74/1 31/75/1 27/76/1
f 28/77/2 27/78/2 31/79/2 32/80/2
f 32/81/3 31/82/3 29/83/3 30/84/3
f 30/85/4 26/86/4 28/87/4 32/88/4
f 26/89/5 25/90/5 27/91/5 28/92/5
f 30/93/6 29/94/6 25/95/6 26/96/6
f 33/97/1 37/98/1 39/99/1 35/100/1
f 36/101/2 35/102/2 39/103/2 40/104/2
f 40/105/3 39/106/3 37/107/3 38/108/3
f 38/109/4 34/110/4 36/111/4 40/112/4
f 34/113/5 33/114/5 35/115/5 36/116/5
f 38/117/6 37/118/6 33/119/6 34/120/6
f 41/121/1 45/122/1 47/123/1 43/124/1
f 44/125/2 43/126/2 47/127/2 48/128/2
f 48/129/3 47/130/3 45/131/3 46/132/3
f 46/133/4 42/134/4 44/135/4 48/136/4
f 42/137/5 41/138/5 43/139/5 44/140/5
f 46/141/6 45/142/6 41/143/6 42/144/6
f 49/145/1 53/146/1 55/147/1 51/148/1
f 52/149/2 51/150/2 55/151/2 56/152/2
f 56/153/3 55/154/3 53/155/3 54/156/3
f 54/157/4 50/158/4 52/159/4 56/160/4
f 50/161/5 49/162/5 51/163/5 52/164/5
f 54/165/6 53/166/6 49/167/6 50/168/6
f 57/169/1 61/170/1 63/171/1 59/172/1
f 60/173/2 59/174/2 63/175/2 64/176/2
f 64/177/3 63/178/3 61/179/3 62/180/3
f 62/181/4 58/182/4 60/183/4 64/184/4
f 58/185/5 57/186/5 59/187/5 60/188/5
f 62/189/6 61/190/6 57/191/6 58/192/6
f 65/193/1 69/194/1 71/195/1 67/196/1
f 68/197/2 67/198/2 71/199/2 72/200/2
f 72/201/3 71/202/3 69/203/3 70/204/3
f 70/205/4 66/206/4 68/207/4 72/208/4
f 66/209/5 65/210/5 67/211/5 68/212/5
f 70/213/6 69/214/6 65/215/6 66/216/6
f 73/217/4 75/218/4 79/219/4 77/220/4
f 76/221/6 80/222/6 79/223/6 75/224/6
f 80/225/5 78/226/5 77/227/5 79/228/5
f 78/229/1 80/230/1 76/231/1 74/232/1
f 74/233/3 76/234/3 75/235/3 73/236/3
f 78/237/2 74/238/2 73/239/2 77/240/2
