# Blender v2.93.5 OBJ File: ''
# www.blender.org
mtllib fridge-2-pintu.mtl
o Cube.002
v 0.288957 -0.408257 -0.334798
v -0.356031 -0.408257 -0.334798
v -0.356031 1.336145 -0.334798
v 0.288957 1.336145 -0.334798
v 0.288957 1.382315 0.254560
v 0.288957 -0.408257 0.254560
v 0.288957 1.336145 0.209675
v 0.288957 1.382315 0.209675
v -0.356031 1.382315 0.254560
v -0.356031 -0.408257 0.254560
v -0.356031 1.382315 0.209675
v -0.356031 1.336145 0.209675
vt 0.985573 0.006149
vt 0.985573 0.327184
vt 0.672816 0.327184
vt 0.672816 0.006149
vt 0.660517 0.327184
vt 0.339483 0.327184
vt 0.339483 0.006149
vt 0.652240 0.006149
vt 0.652240 0.302734
vt 0.660517 0.302734
vt 0.660517 0.660518
vt 0.339483 0.660518
vt 0.339483 0.339483
vt 0.660517 0.339483
vt 0.318906 0.660518
vt 0.006149 0.660517
vt 0.006149 0.339483
vt 0.327184 0.339483
vt 0.327184 0.363932
vt 0.318906 0.363932
vt 0.006149 0.006149
vt 0.327184 0.006149
vt 0.327184 0.327184
vt 0.006149 0.327184
vt 0.006149 0.993851
vt 0.006149 0.672816
vt 0.030599 0.672816
vt 0.030599 0.993851
vt 0.981699 0.339483
vt 0.989977 0.339483
vt 0.989977 0.660518
vt 0.981699 0.660518
vt 0.969401 0.339483
vt 0.969401 0.660518
vt 0.672816 0.660518
vt 0.672816 0.339483
vn 0.0000 0.0000 -1.0000
vn 1.0000 -0.0000 0.0000
vn 0.0000 -0.0000 1.0000
vn -1.0000 -0.0000 0.0000
vn 0.0000 -1.0000 -0.0000
vn 0.0000 1.0000 0.0000
g Cube.002_Cube.002_body
usemtl body
s off
f 1/1/1 2/2/1 3/3/1 4/4/1
f 5/5/2 6/6/2 1/7/2 4/8/2 7/9/2 8/10/2
f 6/11/3 5/12/3 9/13/3 10/14/3
f 3/15/4 2/16/4 10/17/4 9/18/4 11/19/4 12/20/4
f 1/21/5 6/22/5 10/23/5 2/24/5
f 9/25/6 5/26/6 8/27/6 11/28/6
f 8/29/1 7/30/1 12/31/1 11/32/1
f 4/33/6 3/34/6 12/35/6 7/36/6
o Cube.003_Cube.003
v -0.352568 0.341719 0.351099
v 0.292420 0.341720 0.351099
v 0.292420 1.375929 0.351099
v -0.352568 1.375929 0.351099
v 0.292420 0.341720 0.257544
v 0.292420 1.375929 0.257544
v -0.352568 0.341719 0.257544
v -0.352568 1.375929 0.257544
vt 0.374372 0.007807
vt 0.725322 0.007807
vt 0.725322 0.900259
vt 0.374372 0.900259
vt 0.903236 0.900259
vt 0.829893 0.900259
vt 0.829893 0.007807
vt 0.903236 0.007807
vt 0.358757 0.900259
vt 0.007807 0.900259
vt 0.007807 0.007807
vt 0.358757 0.007807
vt 0.814278 0.900259
vt 0.740936 0.900259
vt 0.740936 0.007807
vt 0.814279 0.007807
vt 0.992193 0.374372
vt 0.992193 0.725322
vt 0.918850 0.725322
vt 0.918850 0.374372
vt 0.992193 0.007807
vt 0.992193 0.358757
vt 0.918850 0.358757
vt 0.918850 0.007807
vn 0.0000 -0.0000 1.0000
vn 1.0000 0.0000 0.0000
vn 0.0000 0.0000 -1.0000
vn -1.0000 0.0000 0.0000
vn 0.0000 -1.0000 0.0000
vn 0.0000 1.0000 0.0000
g Cube.003_Cube.003_Cube.003_Cube.003_top
usemtl top
s 1
f 13/37/7 14/38/7 15/39/7 16/40/7
f 14/41/8 17/42/8 18/43/8 15/44/8
f 17/45/9 19/46/9 20/47/9 18/48/9
f 19/49/10 13/50/10 16/51/10 20/52/10
f 14/53/11 13/54/11 19/55/11 17/56/11
f 18/57/12 20/58/12 16/59/12 15/60/12
o Cube.001_Cube.001
v -0.353487 -0.409995 0.256870
v -0.353487 -0.409995 0.272324
v -0.353487 -0.404995 0.272324
v -0.353487 -0.404995 0.319808
v -0.353487 -0.393077 0.319808
v -0.353487 -0.393077 0.350425
v -0.353487 0.316438 0.350425
v -0.353487 0.316438 0.317460
v -0.353487 0.323550 0.317460
v -0.353487 0.323550 0.271079
v -0.353487 0.340005 0.271079
v -0.353487 0.340005 0.256870
v 0.291501 -0.393077 0.350425
v 0.291501 0.316438 0.350425
v 0.291501 0.323550 0.271079
v 0.291501 0.323550 0.317460
v 0.291501 0.316438 0.317460
v 0.291501 -0.393077 0.319808
v 0.291501 -0.404995 0.319808
v 0.291501 -0.404995 0.272324
v 0.291501 -0.409995 0.272324
v 0.291501 -0.409995 0.256870
v 0.291501 0.340005 0.256870
v 0.291501 0.340005 0.271079
vt 0.325878 0.340788
vt 0.273276 0.340788
vt 0.273276 0.342911
vt 0.111661 0.342911
vt 0.111661 0.347971
vt 0.007455 0.347971
vt 0.007455 0.649206
vt 0.119654 0.649206
vt 0.119654 0.652225
vt 0.277517 0.652225
vt 0.277517 0.659212
vt 0.325878 0.659212
vt 0.642023 0.340788
vt 0.340788 0.340788
vt 0.340788 0.659212
vt 0.642023 0.659212
vt 0.389150 0.318892
vt 0.547013 0.318892
vt 0.547013 0.315873
vt 0.659211 0.315873
vt 0.659212 0.014638
vt 0.555006 0.014638
vt 0.555006 0.009578
vt 0.393391 0.009578
vt 0.393391 0.007455
vt 0.340788 0.007455
vt 0.340788 0.325878
vt 0.389150 0.325878
vt 0.325878 0.007455
vt 0.007455 0.007455
vt 0.007455 0.325878
vt 0.325878 0.325878
vt 0.007455 0.992545
vt 0.060057 0.992545
vt 0.060057 0.674122
vt 0.007455 0.674122
vt 0.123329 0.992545
vt 0.123329 0.674122
vt 0.074967 0.674122
vt 0.074967 0.992545
vt 0.988104 0.325878
vt 0.988104 0.007455
vt 0.985981 0.007455
vt 0.985981 0.325878
vt 0.656933 0.659212
vt 0.818549 0.659212
vt 0.818549 0.340788
vt 0.656933 0.340788
vt 0.971071 0.325878
vt 0.971071 0.007455
vt 0.966010 0.007455
vt 0.966010 0.325878
vt 0.951100 0.325878
vt 0.951100 0.007455
vt 0.846895 0.007455
vt 0.846895 0.325878
vt 0.960568 0.340788
vt 0.960568 0.659212
vt 0.967554 0.659212
vt 0.967554 0.340788
vt 0.831984 0.325878
vt 0.831984 0.007455
vt 0.674122 0.007455
vt 0.674122 0.325878
vt 0.982464 0.340788
vt 0.982464 0.659212
vt 0.985484 0.659212
vt 0.985484 0.340788
vt 0.945658 0.659212
vt 0.945658 0.340788
vt 0.833459 0.340788
vt 0.833459 0.659212
vn -1.0000 -0.0000 0.0000
vn 0.0000 -0.0000 1.0000
vn 1.0000 0.0000 0.0000
vn 0.0000 0.0000 -1.0000
vn 0.0000 -1.0000 0.0000
vn 0.0000 1.0000 0.0000
g Cube.001_Cube.001_Cube.001_Cube.001_bottom
usemtl bottom
s off
f 21/61/13 22/62/13 23/63/13 24/64/13 25/65/13 26/66/13 27/67/13 28/68/13 29/69/13 30/70/13 31/71/13 32/72/13
f 33/73/14 34/74/14 27/75/14 26/76/14
f 35/77/15 36/78/15 37/79/15 34/80/15 33/81/15 38/82/15 39/83/15 40/84/15 41/85/15 42/86/15 43/87/15 44/88/15
f 42/89/16 21/90/16 32/91/16 43/92/16
f 42/93/17 41/94/17 22/95/17 21/96/17
f 31/97/18 44/98/18 43/99/18 32/100/18
f 22/101/14 41/102/14 40/103/14 23/104/14
f 40/105/17 39/106/17 24/107/17 23/108/17
f 24/109/14 39/110/14 38/111/14 25/112/14
f 33/113/17 26/114/17 25/115/17 38/116/17
f 44/117/14 31/118/14 30/119/14 35/120/14
f 29/121/18 36/122/18 35/123/18 30/124/18
f 36/125/14 29/126/14 28/127/14 37/128/14
f 27/129/18 34/130/18 37/131/18 28/132/18
