# Blender v2.93.5 OBJ File: ''
# www.blender.org
mtllib fridge-1-pintu.mtl
o Cube.003_Cube.002
v -0.300899 1.019099 0.359211
v -0.300899 0.710431 0.359211
v -0.300899 0.710431 0.376347
v -0.300899 1.019099 0.376347
v -0.312235 0.710431 0.376347
v -0.312235 1.019099 0.376347
v -0.312235 0.710431 0.359211
v -0.312235 1.019099 0.359211
v -0.346213 -0.389579 0.349865
v 0.298775 -0.389578 0.349865
v 0.298775 1.384003 0.349865
v -0.346213 1.384003 0.349865
v 0.298775 -0.389578 0.256310
v 0.298775 1.384003 0.256310
v -0.346213 -0.389579 0.256310
v -0.346213 1.384003 0.256310
vt 0.929336 0.744626
vt 0.929336 0.900106
vt 0.915987 0.900106
vt 0.915987 0.744626
vt 0.987339 0.900106
vt 0.987339 0.744626
vt 0.993601 0.744626
vt 0.993601 0.900106
vt 0.955482 0.744626
vt 0.955482 0.900106
vt 0.942133 0.900106
vt 0.942133 0.744626
vt 0.974542 0.744626
vt 0.974542 0.900106
vt 0.968279 0.900106
vt 0.968279 0.744626
vt 0.006399 0.912570
vt 0.012661 0.912570
vt 0.012661 0.925920
vt 0.006399 0.925920
vt 0.025458 0.912570
vt 0.031721 0.912570
vt 0.031721 0.925920
vt 0.025458 0.925920
vt 0.375512 0.006399
vt 0.731829 0.006399
vt 0.731829 0.899773
vt 0.375512 0.899773
vt 0.903189 0.899773
vt 0.830306 0.899773
vt 0.830306 0.006399
vt 0.903189 0.006399
vt 0.006399 0.006399
vt 0.362715 0.006399
vt 0.362715 0.899773
vt 0.006399 0.899773
vt 0.817509 0.899773
vt 0.744626 0.899773
vt 0.744626 0.006399
vt 0.817509 0.006399
vt 0.988869 0.006399
vt 0.988869 0.362715
vt 0.915986 0.362715
vt 0.915987 0.006399
vt 0.988869 0.375512
vt 0.988869 0.731829
vt 0.915986 0.731829
vt 0.915986 0.375512
vn -1.0000 -0.0000 0.0000
vn 0.0000 0.0000 -1.0000
vn 1.0000 -0.0000 0.0000
vn 0.0000 -0.0000 1.0000
vn 0.0000 -1.0000 -0.0000
vn 0.0000 1.0000 0.0000
g Cube.003_Cube.002_Cube.003_Cube.002_single
usemtl single
s off
f 1/1/1 2/2/1 3/3/1 4/4/1
f 4/5/2 3/6/2 5/7/2 6/8/2
f 6/9/3 5/10/3 7/11/3 8/12/3
f 8/13/4 7/14/4 2/15/4 1/16/4
f 4/17/5 6/18/5 8/19/5 1/20/5
f 5/21/6 3/22/6 2/23/6 7/24/6
s 1
f 9/25/4 10/26/4 11/27/4 12/28/4
f 10/29/3 13/30/3 14/31/3 11/32/3
f 13/33/2 15/34/2 16/35/2 14/36/2
f 15/37/1 9/38/1 12/39/1 16/40/1
f 10/41/5 9/42/5 15/43/5 13/44/5
f 14/45/6 16/46/6 12/47/6 11/48/6
o Cube.003
v 0.288957 -0.393726 -0.334798
v -0.356031 -0.393726 -0.334798
v -0.356031 1.350676 -0.334798
v 0.288957 1.350676 -0.334798
v 0.288957 1.396846 0.254560
v 0.288957 -0.393726 0.254560
v 0.288957 1.350676 0.209675
v 0.288957 1.396846 0.209675
v -0.356031 1.396846 0.254560
v -0.356031 -0.393726 0.254560
v -0.356031 1.396846 0.209675
v -0.356031 1.350676 0.209675
vt 0.985573 0.006149
vt 0.985573 0.327184
vt 0.672816 0.327184
vt 0.672816 0.006149
vt 0.660517 0.327184
vt 0.339483 0.327184
vt 0.339483 0.006149
vt 0.652240 0.006149
vt 0.652240 0.302734
vt 0.660517 0.302734
vt 0.660517 0.660518
vt 0.339483 0.660518
vt 0.339483 0.339483
vt 0.660517 0.339483
vt 0.318906 0.660518
vt 0.006149 0.660517
vt 0.006149 0.339483
vt 0.327184 0.339483
vt 0.327184 0.363932
vt 0.318906 0.363932
vt 0.006149 0.006149
vt 0.327184 0.006149
vt 0.327184 0.327184
vt 0.006149 0.327184
vt 0.006149 0.993851
vt 0.006149 0.672816
vt 0.030599 0.672816
vt 0.030599 0.993851
vt 0.981699 0.339483
vt 0.989977 0.339483
vt 0.989977 0.660518
vt 0.981699 0.660518
vt 0.969401 0.339483
vt 0.969401 0.660518
vt 0.672816 0.660518
vt 0.672816 0.339483
vn 0.0000 0.0000 -1.0000
vn 1.0000 -0.0000 0.0000
vn 0.0000 -0.0000 1.0000
vn -1.0000 -0.0000 0.0000
vn 0.0000 -1.0000 -0.0000
vn 0.0000 1.0000 0.0000
g Cube.003_Cube.003_body
usemtl body
s off
f 17/49/7 18/50/7 19/51/7 20/52/7
f 21/53/8 22/54/8 17/55/8 20/56/8 23/57/8 24/58/8
f 22/59/9 21/60/9 25/61/9 26/62/9
f 19/63/10 18/64/10 26/65/10 25/66/10 27/67/10 28/68/10
f 17/69/11 22/70/11 26/71/11 18/72/11
f 25/73/12 21/74/12 24/75/12 27/76/12
f 24/77/7 23/78/7 28/79/7 27/80/7
f 20/81/12 19/82/12 28/83/12 23/84/12
